<svg xmlns="http://www.w3.org/2000/svg" width="512" height="512" viewBox="0 -16 512 512"><g><path fill="orange" d="m131.441406 478.117188 3.394532 1.882812h242.328124l3.394532-1.882812c81.074218-44.988282 131.441406-130.484376 131.441406-223.117188 0-140.605469-114.839844-255-256-255s-256 114.394531-256 255c0 92.632812 50.367188 178.128906 131.441406 223.117188zm124.558594-448.117188c124.617188 0 226 100.933594 226 225 0 80.460938-43.074219 154.824219-112.667969 195h-226.664062c-69.59375-40.175781-112.667969-114.539062-112.667969-195 0-124.066406 101.382812-225 226-225zm0 0" class="active-path" data-old_color="#E63333" data-original="#000000"/><path fill="orange" d="m127.714844 403.5 42.433594-42.433594-21.214844-21.214844-20.734375 20.734376c-21.539063-25.800782-34.527344-57.164063-37.523438-90.585938h29.324219v-30h-29.308594c3.117188-34.191406 16.761719-65.40625 37.695313-90.402344l20.546875 20.550782 21.214844-21.214844-20.511719-20.507813c25.222656-20.976562 56.78125-34.652343 91.363281-37.742187v29.316406h30v-29.320312c34.582031 3.09375 66.140625 16.769531 91.363281 37.746093l-20.511719 20.507813 21.214844 21.210937 20.546875-20.546875c20.933594 24.992188 34.578125 56.207032 37.695313 90.402344h-29.308594v29.988281h29.324219c-2.996094 33.421875-15.984375 64.796875-37.523438 90.597657l-20.734375-20.734376-21.214844 21.214844 42.433594 42.433594c3.582032-5.113281 67.714844-54.359375 67.714844-148.5 0-107.5625-88.285156-195-196-195-107.59375 0-196 87.324219-196 195 0 93.746094 64.234375 143.523438 67.714844 148.5zm0 0" class="active-path" data-old_color="#E63333" data-original="#000000"/><path fill="orange" d="m298.421875 270h63.578125v-30h-63.578125c-6.195313-17.460938-22.867187-30-42.421875-30-24.8125 0-45 20.1875-45 45s20.1875 45 45 45c19.554688 0 36.226562-12.539062 42.421875-30zm-57.421875-15c0-8.269531 6.730469-15 15-15s15 6.730469 15 15-6.730469 15-15 15-15-6.730469-15-15zm0 0" class="active-path" data-old_color="#E63333" data-original="#000000"/><path fill="orange" d="m211 390h90v30h-90zm0 0" class="active-path" data-old_color="#E63333" data-original="#000000"/></g></svg>