<svg height="512" viewBox="0 0 61 60" width="512" xmlns="http://www.w3.org/2000/svg"><g id="014---Self-Driving-Tractor" fill="none"><g id="Icons" transform="translate(1 1)"><path id="Shape" d="m45 4h2c.5522847 0 1 .44771525 1 1v11h-4v-11c0-.55228475.4477153-1 1-1z" fill="#607d8b"/><path id="Shape" d="m11 0h2c.5522847 0 1 .44771525 1 1v15h-4v-15c0-.55228475.4477153-1 1-1z" fill="#607d8b"/><path id="Shape" d="m53 18c0 21.63.09 20.37-.2 21.23-1.9125773-1.0554483-4.1215033-1.4458795-6.28-1.11-2.5986364.3866375-4.9407334 1.7804008-6.52 3.88h-12.14c-.7291248-5.0268401-4.1237873-9.2644199-8.8703661-11.072937s-10.10036972-.9042282-13.9896339 2.362937v-14.29c0-2.21 1.79-5 4-5h40c2.209139 0 4 1.790861 4 4z" fill="#c81e1e"/><path id="Shape" d="m50 18v20.2c-1.1422996-.2363934-2.3180199-.2634994-3.47-.08-2.6022574.3841504-4.9483608 1.7781598-6.53 3.88h-12.14c-.7291248-5.0268401-4.1237873-9.2644199-8.8703661-11.072937s-10.10036972-.9042282-13.9896339 2.362937v-14.29c0-2.21 1.79-5 4-5h37c2.209139 0 4 1.790861 4 4z" fill="#f44335"/><path id="Shape" d="m53 19c0 20.66.08 19.38-.2 20.23-1.9125773-1.0554483-4.1215033-1.4458795-6.28-1.11-2.5986364.3866375-4.9407334 1.7804008-6.52 3.88h-7v-10c0-1.6568542 1.3431458-3 3-3h10v-8c0-1.1045695.8954305-2 2-2z" fill="#3f51b5"/><path id="Shape" d="m50 19v19.22c.9856856.1868727 1.9367908.524144 2.82 1 .29-.87.2.4.2-20.23z" fill="#283593"/><path id="Shape" d="m17 14h22v3c0 1.3260824-.5267842 2.597852-1.4644661 3.5355339s-2.2094515 1.4644661-3.5355339 1.4644661h-12c-2.7614237 0-5-2.2385763-5-5z" fill="#3f51b5"/><circle id="Oval" cx="14" cy="44" fill="#607d8b" r="14"/><path id="Shape" d="m58 48c-.0028718 2.9087962-1.2721467 5.6721835-3.4768702 7.5696285-2.2047236 1.897445-5.1263659 2.740875-8.0031298 2.3103715-4.8674023-.7609202-8.4554612-4.9534794-8.4554612-9.88s3.5880589-9.1190798 8.4554612-9.88c2.8767639-.4305035 5.7984062.4129265 8.0031298 2.3103715 2.2047235 1.897445 3.4739984 4.6608323 3.4768702 7.5696285z" fill="#37474f"/><path id="Shape" d="m55 48c-.0018776 4.9344879-3.602848 9.1299581-8.48 9.88-4.8674023-.7609202-8.4554612-4.9534794-8.4554612-9.88s3.5880589-9.1190798 8.4554612-9.88c4.877152.7500419 8.4781224 4.9455121 8.48 9.88z" fill="#607d8b"/><g fill="#f5f5f5"><circle id="Oval" cx="14" cy="44" r="9"/><circle id="Oval" cx="48" cy="48" r="5"/></g></g><g id="Layer_4" fill="#000"><path id="Shape" d="m20.59 37.88c-.1893127.1877666-.2957983.4433625-.2957983.71s.1064856.5222334.2957983.71c2.6543391 2.6462028 3.1156669 6.7805043 1.1099075 9.9467062-2.0057593 3.1662019-5.9408438 4.5154173-9.4674105 3.246074-3.52656677-1.2693433-5.69911163-4.8169228-5.22692064-8.5351134.47219098-3.7181905 3.46251924-6.6101119 7.19442364-6.9576668.3572656-.0357265.6683327-.2593382.8160254-.5866025.1476927-.3272644.109573-.7084623-.1-1.0000001-.2095729-.2915378-.5587598-.449124-.9160254-.4133974-4.66277031.4635704-8.37839234 4.1026664-8.93888433 8.7547813s2.18446553 9.0695888 6.60370123 10.6273693c4.4192357 1.5577806 9.3275459-.1619163 11.8082025-4.1371732s1.8683673-9.1399417-1.4730194-12.4249774c-.4063531-.37163-1.0366868-.3448073-1.41.06z"/><path id="Shape" d="m54.94 39.76c.06-.56.06 1.13.06-20.76 0-2.7614237-2.2385763-5-5-5v-4h2c.5522847 0 1-.44771525 1-1s-.4477153-1-1-1h-2v-2c0-1.1045695-.8954305-2-2-2h-2c-1.1045695 0-2 .8954305-2 2v2h-2c-.5522847 0-1 .44771525-1 1s.4477153 1 1 1h2v4h-28v-12c0-1.1045695-.8954305-2-2-2h-2c-1.1045695 0-2 .8954305-2 2v12c-2.82 0-5 3.23-5 6v13.85c-5.21229303 4.6901541-6.47990195 12.3655095-3.05244996 18.4825445 3.427452 6.117035 10.63536576 9.0434479 17.35692736 7.0469125 6.7215616-1.9965355 11.1631544-8.3832534 10.6955226-15.379457h9.26c-2.7080878 5.2832278-.7351973 11.7621716 4.4578292 14.6394465 5.1930265 2.877275 11.7322977 1.1146234 14.775759-3.9827856s1.4928869-11.6901875-3.5035882-14.8966609zm-6.94-1.71v-10.23c1.46 1 1.58 1.18 2 1.18.4362819-.0010294.8215408-.2847832.9519337-.7011252.1303928-.416342-.0241803-.869164-.3819337-1.1188748l-2.57-1.8v-3.38c0-.5522847.4477153-1 1-1h4v12.18l-1.43-1c-.2921707-.2264882-.6854584-.2733131-1.0226393-.1217557-.3371808.1515574-.5632435.4767703-.5878153.8456291s.1563561.7211837.4704546.9161266l2.57 1.8v3.14c-1.5874273-.6273828-3.3006702-.8706633-5-.71zm-2-32.05h2v8h-2zm-7 10v2c0 2.209139-1.790861 4-4 4h-12c-2.209139 0-4-1.790861-4-4v-2zm-27-14h2v12h-2zm3 56c-7.17970175 0-13-5.8202983-13-13s5.82029825-13 13-13c7.1797017 0 13 5.8202983 13 13 0 3.4478144-1.3696389 6.7544152-3.8076118 9.1923882-2.437973 2.4379729-5.7445738 3.8076118-9.1923882 3.8076118zm-8-25.67v-12.33c0-1.75 1.45-4 3-4h7v2c0 3.3137085 2.6862915 6 6 6h12c3.3137085 0 6-2.6862915 6-6v-2h9c1.6568542 0 3 1.3431458 3 3h-4c-1.6568542 0-3 1.3431458-3 3v7h-9c-2.209139 0-4 1.790861-4 4v9h-3.3c-.9897774-4.824196-4.284506-8.8552443-8.815228-10.785292-4.5307221-1.9300477-9.7202141-1.5132026-13.884772 1.115292zm28 9.67v-9c0-1.1045695.8954305-2 2-2h9v3h-7c-.5522847 0-1 .4477153-1 1s.4477153 1 1 1h7v2.43c-2.1479636.6033657-4.0601004 1.849046-5.48 3.57zm14 16c-4.9705627 0-9-4.0294373-9-9s4.0294373-9 9-9 9 4.0294373 9 9-4.0294373 9-9 9z"/><path id="Shape" d="m54 48c-.5522847 0-1 .4477153-1 1 0 2.209139-1.790861 4-4 4s-4-1.790861-4-4 1.790861-4 4-4c.5522847 0 1-.4477153 1-1s-.4477153-1-1-1c-3.3137085 0-6 2.6862915-6 6s2.6862915 6 6 6 6-2.6862915 6-6c0-.5522847-.4477153-1-1-1z"/><path id="Shape" d="m24 20h10c.5522847 0 1-.4477153 1-1s-.4477153-1-1-1h-10c-.5522847 0-1 .4477153-1 1s.4477153 1 1 1z"/></g></g></svg>