<svg height="512" viewBox="0 0 64 64" width="512" xmlns="http://www.w3.org/2000/svg"><g fill="#c6c5ca"><path d="m12 35v12a2 2 0 0 1 -4 0v-12z"/><path d="m21.33 31-3.33 4h-7v-4z"/><path d="m52 31v4h-6l-3.33-4z"/><path d="m56 35v12a2 2 0 0 1 -4 0v-12z"/></g><path d="m46 35v14h-28v-14l3.33-4 1.67-2h18l1.67 2z" fill="#3d9ae2"/><circle cx="47" cy="13" fill="#acabb1" r="2"/><path d="m47 7-6 1.6-9 2.4-9-2.4-6-1.6 15-4z" fill="#acabb1"/><path d="m46 49-3 6h-22l-3-6h5 18z" fill="#1e81ce"/><circle cx="43" cy="58" fill="#57565c" r="3"/><path d="m41 41v8h-18v-8a4 4 0 0 1 4-4h10a4 4 0 0 1 4 4z" fill="#e6e7e8"/><path d="m41 8.6v6.4h-18v-6.4l9 2.4z" fill="#787680"/><circle cx="21" cy="58" fill="#57565c" r="3"/><path d="m41 8.6v2l-9 2.4-9-2.4v-2l9 2.4z" fill="#57565c"/><path d="m42.67 31h-21.34l1.67-2h18z" fill="#1e81ce"/><path d="m41 15h-18a2.006 2.006 0 0 0 -2 2v10a2.006 2.006 0 0 0 2 2h18a2.006 2.006 0 0 0 2-2v-10a2.006 2.006 0 0 0 -2-2z" fill="#5aaae7"/><circle cx="37" cy="21" fill="#e6e7e8" r="2"/><path d="m36 27v2h-8v-2a2.006 2.006 0 0 1 2-2h4a2.006 2.006 0 0 1 2 2z" fill="#acabb1"/><circle cx="27" cy="21" fill="#e6e7e8" r="2"/><path d="m14 33a3.989 3.989 0 0 1 -.54 2h-1.46v1.46a3.974 3.974 0 0 1 -4 0v-1.46h3v-4h2.46a3.989 3.989 0 0 1 .54 2z" fill="#acabb1"/><path d="m12.23 31a2.982 2.982 0 0 1 0 4 2.5 2.5 0 0 1 -.23.23 3 3 0 0 1 -5-2.23 3 3 0 0 1 3-3 2.94 2.94 0 0 1 2.23 1z" fill="#898890"/><path d="m52 31v4h-1.46a3.974 3.974 0 0 1 0-4z" fill="#acabb1"/><path d="m56 35v1.46a3.974 3.974 0 0 1 -4 0v-1.46z" fill="#acabb1"/><path d="m54 30a3 3 0 0 1 3 3 3 3 0 0 1 -5 2.23 2.5 2.5 0 0 1 -.23-.23 3 3 0 0 1 2.23-5z" fill="#898890"/><path d="m27 24a3 3 0 1 0 -3-3 3 3 0 0 0 3 3zm0-4a1 1 0 1 1 -1 1 1 1 0 0 1 1-1z"/><path d="m37 24a3 3 0 1 0 -3-3 3 3 0 0 0 3 3zm0-4a1 1 0 1 1 -1 1 1 1 0 0 1 1-1z"/><path d="m56.381 48.805a2.972 2.972 0 0 0 .619-1.805v-11.382a3.98 3.98 0 0 0 -5.618-5.618h-8.247l-.44-.528a3 3 0 0 0 1.305-2.472v-10a3 3 0 0 0 -2-2.816v-4.816l4-1.068v1.882a3 3 0 1 0 2 0v-3.182a1 1 0 0 0 -.742-.966l-15-4a1 1 0 0 0 -.516 0l-15 4a1 1 0 0 0 0 1.932l5.258 1.402v4.816a3 3 0 0 0 -2 2.816v10a3 3 0 0 0 1.3 2.472l-.44.528h-8.242a3.98 3.98 0 0 0 -5.618 5.618v11.382a2.972 2.972 0 0 0 .619 1.8 3.984 3.984 0 0 0 -1.619 3.2h2a2 2 0 0 1 4 0h2a3.984 3.984 0 0 0 -1.619-3.195 2.972 2.972 0 0 0 .619-1.805v-11h4v13a1 1 0 0 0 .105.447l2.421 4.842a4 4 0 1 0 5.474 3.711 3.959 3.959 0 0 0 -.556-2h15.112a3.959 3.959 0 0 0 -.556 2 4 4 0 1 0 5.474-3.711l2.426-4.842a1 1 0 0 0 .1-.447v-13h4v11a2.972 2.972 0 0 0 .619 1.8 3.984 3.984 0 0 0 -1.619 3.2h2a2 2 0 0 1 4 0h2a3.984 3.984 0 0 0 -1.619-3.195zm-2.381-17.805a2 2 0 1 1 -2 2 2 2 0 0 1 2-2zm-3.858 1a3.592 3.592 0 0 0 0 2h-3.674l-1.668-2zm-5.142 16h-3v-7a5.006 5.006 0 0 0 -5-5h-10a5.006 5.006 0 0 0 -5 5v7h-3v-12.638l4.468-5.362h17.064l4.468 5.362zm-5 0h-16v-7a3 3 0 0 1 3-3h10a3 3 0 0 1 3 3zm4.382 2-2 4h-20.764l-2-4zm-9.382-22h-6v-1a1 1 0 0 1 1-1h4a1 1 0 0 1 1 1zm12-14a1 1 0 1 1 1-1 1 1 0 0 1 -1 1zm-15-9.965 11.119 2.965-11.119 2.965-11.119-2.965zm-.258 7.931a1 1 0 0 0 .516 0l7.742-2.066v4.1h-16v-4.1zm-9.742 5.034a1 1 0 0 1 1-1h18a1 1 0 0 1 1 1v10a1 1 0 0 1 -1 1h-4v-1a3 3 0 0 0 -3-3h-4a3 3 0 0 0 -3 3v1h-4a1 1 0 0 1 -1-1zm-4.468 17h-3.674a3.592 3.592 0 0 0 0-2h5.342zm-7.532-3a2 2 0 1 1 -2 2 2 2 0 0 1 2-2zm-1 16v-10.142a3.592 3.592 0 0 0 2 0v10.142a1 1 0 0 1 -2 0zm14 11a2 2 0 1 1 -2-2 2 2 0 0 1 2 2zm20 2a2 2 0 1 1 2-2 2 2 0 0 1 -2 2zm10-13v-10.142a3.592 3.592 0 0 0 2 0v10.142a1 1 0 0 1 -2 0z"/></svg>