<svg xmlns="http://www.w3.org/2000/svg" xmlns:xlink="http://www.w3.org/1999/xlink" id="Capa_1" x="0" y="0" version="1.1" viewBox="0 0 512 512" xml:space="preserve" style="enable-background:new 0 0 512 512"><path style="fill:#e1d8dc" d="M430.47,173.896L368,88H144l-64,88v328c0,4.418,3.582,8,8,8h216h120c4.418,0,8-3.582,8-8V178.602	C432,176.911,431.464,175.263,430.47,173.896z"/><path style="fill:#66c3ab" d="M304,512H88c-4.418,0-8-3.582-8-8V176h224V512z"/><path style="fill:#33af8f" d="M112,504V176H80v328c0,4.418,3.582,8,8,8h32C115.582,512,112,508.418,112,504z"/><polygon style="fill:#f0eced" points="304 176 368 88 144 88 80 176"/><g><polygon style="fill:#e1d8dc" points="144 88 80 176 112 176 176 88"/><path style="fill:#e1d8dc" d="M368,88l62.47,85.896c0.994,1.367,1.53,3.015,1.53,4.705V504c0,4.418-3.582,8-8,8H304V178.601 c0-1.691,0.536-3.338,1.53-4.705L368,88z"/></g><path style="fill:#66c3ab" d="M368,88H144V24c0-13.255,10.745-24,24-24h176c13.255,0,24,10.745,24,24V88z"/><path style="fill:#33af8f" d="M200,0h-32c-13.255,0-24,10.745-24,24v64h32V24C176,10.745,186.745,0,200,0z"/><path style="fill:#fff" d="M254.686,273.464c-5.675-2.611-12.352-1.678-17.099,2.388L192,314.927l-45.587-39.075	c-4.745-4.066-11.421-4.999-17.099-2.388C123.638,276.075,120,281.751,120,288v96c0,8.836,7.163,16,16,16s16-7.164,16-16v-61.212	l29.587,25.36c5.992,5.136,14.834,5.136,20.826,0L232,322.788V384c0,8.836,7.163,16,16,16s16-7.164,16-16v-96	C264,281.751,260.362,276.075,254.686,273.464z"/></svg>