<?xml version="1.0" encoding="iso-8859-1"?>
<!-- Generator: Adobe Illustrator 19.0.0, SVG Export Plug-In . SVG Version: 6.00 Build 0)  -->
<svg version="1.1" id="Capa_1" xmlns="http://www.w3.org/2000/svg" xmlns:xlink="http://www.w3.org/1999/xlink" x="0px" y="0px"
	 viewBox="0 0 512 512" style="enable-background:new 0 0 512 512;" xml:space="preserve">
<path style="fill:#B5B5B5;" d="M132.414,176.199V96.75c-14.583-14.627-38.268-14.654-52.895-0.071
	c-0.026,0.026-0.044,0.044-0.071,0.071v79.448C94.084,161.607,117.778,161.607,132.414,176.199z"/>
<g>
	<path style="fill:#F5F5F5;" d="M132.414,97.103v79.448c-14.583,14.627-38.268,14.654-52.895,0.071
		c-0.026-0.026-0.044-0.044-0.071-0.071V97.103C94.084,111.695,117.778,111.695,132.414,97.103z"/>
	<path style="fill:#F5F5F5;" d="M79.448,238.345v-61.793c14.583,14.627,38.268,14.654,52.895,0.071
		c0.026-0.026,0.044-0.044,0.071-0.071V256c-14.636,14.592-38.329,14.592-52.966,0V238.345z"/>
</g>
<g>
	<path style="fill:#FFCBA8;" d="M273.655,264.828v-22.775c8.422,3.372,17.408,5.111,26.483,5.12h17.655
		c9.075-0.009,18.061-1.748,26.483-5.12v22.775l-35.31,44.138L273.655,264.828z"/>
	<path style="fill:#FFCBA8;" d="M79.448,238.345V256c14.636,14.592,38.329,14.592,52.966,0v-17.655
		c14.627,0,26.483,11.855,26.483,26.483v44.138h-52.966V291.31H79.448c-14.627,0-26.483-11.855-26.483-26.483v-0.794
		c-0.018-14.168,11.449-25.671,25.618-25.688c0.026,0,0.044,0,0.071,0H79.448z"/>
	<path style="fill:#FFCBA8;" d="M406.069,123.586c9.737,0.026,17.629,7.918,17.655,17.655c-0.071,9.719-7.936,17.585-17.655,17.655
		h-17.655v-35.31H406.069z"/>
	<path style="fill:#FFCBA8;" d="M388.414,105.931v70.621c-0.009,28.787-17.461,54.687-44.138,65.501
		c-8.422,3.372-17.408,5.111-26.483,5.12h-17.655c-9.075-0.009-18.061-1.748-26.483-5.12
		c-26.677-10.814-44.129-36.714-44.138-65.501v-70.621h39.724c-7.309,0-13.241,5.932-13.241,13.241s5.932,13.241,13.241,13.241
		s13.241-5.932,13.241-13.241s-5.932-13.241-13.241-13.241h79.448c-7.309,0-13.241,5.932-13.241,13.241s5.932,13.241,13.241,13.241
		s13.241-5.932,13.241-13.241s-5.932-13.241-13.241-13.241H388.414z"/>
	<path style="fill:#FFCBA8;" d="M229.517,123.586v35.31h-17.655c-9.719-0.071-17.585-7.936-17.655-17.655
		c0.026-9.737,7.918-17.629,17.655-17.655H229.517z"/>
</g>
<polygon style="fill:#168DE2;" points="450.207,35.31 388.414,61.793 308.966,44.138 229.517,61.793 167.724,35.31 308.966,0 "/>
<polygon style="fill:#00448F;" points="388.414,61.793 388.414,105.931 348.69,105.931 269.241,105.931 229.517,105.931 
	229.517,61.793 308.966,44.138 "/>
<path style="fill:#FFDB6F;" d="M413.219,275.686l-68.943,86.246V512h-70.621V361.931l-68.943-86.246
	c13.021-7.124,27.622-10.858,42.461-10.858h26.483l35.31,44.138l35.31-44.138h26.483
	C385.598,264.828,400.199,268.562,413.219,275.686z"/>
<g>
	<path style="fill:#168DE2;" d="M158.897,344.276V512c-29.255,0-52.966-23.711-52.966-52.966V308.966h52.966V344.276z"/>
	<path style="fill:#168DE2;" d="M203.034,512h-44.138V353.103c-0.009-32.238,17.558-61.917,45.815-77.418l68.943,86.246V512H203.034
		z"/>
	<path style="fill:#168DE2;" d="M414.897,512h-70.621V361.931l68.943-86.246c28.257,15.501,45.824,45.18,45.815,77.418V512H414.897z
		"/>
</g>
<g>
	<circle style="fill:#603C2F;" cx="348.69" cy="119.172" r="13.241"/>
	<circle style="fill:#603C2F;" cx="269.241" cy="119.172" r="13.241"/>
</g>
<g>
	<rect x="194.207" y="308.966" style="fill:#1378BF;" width="17.655" height="203.034"/>
	<rect x="406.069" y="308.966" style="fill:#1378BF;" width="17.655" height="203.034"/>
</g>
<rect x="277.728" y="150.08" transform="matrix(-0.1646 0.9864 -0.9864 -0.1646 511.4509 -115.3605)" style="fill:#EBB691;" width="53.7" height="17.656"/>
<rect x="441.379" y="35.31" style="fill:#00448F;" width="17.655" height="61.793"/>
<g>
	<path style="fill:#B5B5B5;" d="M105.931,196.37c-12.297,0.035-24.09-4.855-32.759-13.577l12.482-12.482
		c5.376,5.402,12.685,8.43,20.303,8.404h0.044c7.565,0.018,14.822-3.001,20.145-8.386l12.518,12.447
		c-8.625,8.722-20.392,13.621-32.662,13.594L105.931,196.37L105.931,196.37z"/>
	<path style="fill:#B5B5B5;" d="M153.997,201.551l-26.483-17.655c-4.061-2.701-5.155-8.183-2.445-12.244
		c0.644-0.971,1.474-1.801,2.445-2.445l26.483-17.655l9.799,14.689l-15.492,10.311l15.466,10.311L153.997,201.551z"/>
</g>
<path style="fill:#EBB691;" d="M308.966,222.499h-0.071c-12.27,0.026-24.038-4.873-32.662-13.594l12.518-12.447
	c5.323,5.385,12.579,8.404,20.145,8.386l0,0c7.618,0.026,14.927-3.001,20.303-8.404l12.482,12.482
	C333.021,217.635,321.245,222.517,308.966,222.499z"/>
<g>
</g>
<g>
</g>
<g>
</g>
<g>
</g>
<g>
</g>
<g>
</g>
<g>
</g>
<g>
</g>
<g>
</g>
<g>
</g>
<g>
</g>
<g>
</g>
<g>
</g>
<g>
</g>
<g>
</g>
</svg>
