<svg xmlns="http://www.w3.org/2000/svg" xmlns:xlink="http://www.w3.org/1999/xlink" id="Capa_1" x="0" y="0" version="1.1" viewBox="0 0 464 464" xml:space="preserve" style="enable-background:new 0 0 464 464"><path style="fill:#d3843d" d="M374.552,347.416l-56-80c-0.104-0.152-0.288-0.2-0.4-0.336c-2.546-3.398-7.365-4.088-10.763-1.541	c-0.584,0.438-1.103,0.957-1.541,1.541c-0.112,0.136-0.296,0.184-0.4,0.336l-56,80c-2.422,3.695-1.391,8.654,2.304,11.077	c3.538,2.32,8.271,1.483,10.8-1.909L304,297.376V352c0,4.418,3.582,8,8,8s8-3.582,8-8v-54.624l41.448,59.2	c2.422,3.695,7.382,4.727,11.077,2.304c3.695-2.422,4.727-7.382,2.304-11.077c-0.088-0.135-0.18-0.266-0.277-0.395L374.552,347.416z"/><path style="fill:#cfdfe8" d="M32,296h112v64H32V296z"/><path style="fill:#ffd782" d="M56,184h64l0,0v48c0,17.673-14.327,32-32,32s-32-14.327-32-32V184L56,184z"/><g><path style="fill:#5a6470" d="M88,136c26.51,0,48,21.49,48,48l0,0H40l0,0C40,157.49,61.49,136,88,136z"/><path style="fill:#5a6470" d="M80,224h16v16H80V224z"/></g><path style="fill:#e9686a" d="M80,296h16v40H80V296z"/><path style="fill:#f49e21" d="M0,360h176v104H0V360z"/><path style="fill:#7fcac9" d="M176,32h272v240H176V32z"/><path style="fill:#238892" d="M160,0h304v32H160V0z"/><g><path style="fill:#fcf05a" d="M208,80h64v56h-64V80z"/><path style="fill:#fcf05a" d="M416,104H304c-4.418,0-8-3.582-8-8s3.582-8,8-8h112c4.418,0,8,3.582,8,8S420.418,104,416,104z"/><path style="fill:#fcf05a" d="M416,136H304c-4.418,0-8-3.582-8-8s3.582-8,8-8h112c4.418,0,8,3.582,8,8S420.418,136,416,136z"/></g><path style="fill:#e9686a" d="M368,240c-2.122,0-4.156-0.844-5.656-2.344l-16-16c-3.069-3.178-2.982-8.243,0.196-11.312	c3.1-2.994,8.015-2.994,11.116,0L368,220.688l42.344-42.344c3.178-3.07,8.242-2.982,11.312,0.196c2.994,3.1,2.994,8.015,0,11.116	l-48,48C372.156,239.156,370.122,240,368,240z"/><g><path style="fill:#fcf05a" d="M224,200h-16c-4.418,0-8-3.582-8-8s3.582-8,8-8h16c4.418,0,8,3.582,8,8S228.418,200,224,200z"/><path style="fill:#fcf05a" d="M320,200h-64c-4.418,0-8-3.582-8-8s3.582-8,8-8h64c4.418,0,8,3.582,8,8S324.418,200,320,200z"/><path style="fill:#fcf05a" d="M224,232h-16c-4.418,0-8-3.582-8-8s3.582-8,8-8h16c4.418,0,8,3.582,8,8S228.418,232,224,232z"/><path style="fill:#fcf05a" d="M320,232h-64c-4.418,0-8-3.582-8-8s3.582-8,8-8h64c4.418,0,8,3.582,8,8S324.418,232,320,232z"/></g></svg>